<svg version="1" xmlns="http://www.w3.org/2000/svg" width="666.667" height="666.667" viewBox="0 0 500.000000 500.000000"><path d="M229 18.1c-9.5.9-20.6 2.7-24.5 3.9-1.6.5-5.9 1.6-9.5 2.6-3.6.9-8.4 2.3-10.8 3-2.3.8-4.9 1.4-5.7 1.4-.8 0-1.5.4-1.5.9s-1.8 1.1-4 1.5c-2.2.3-4 1.1-4 1.6 0 .6-.7 1-1.5 1s-2.3.4-3.3.9c-4 2.2-10.9 5.1-12 5.1-.7 0-1.2.4-1.2.9s-1.3 1.2-3 1.6c-1.6.4-3 1-3 1.3 0 .4-1 1.2-2.3 1.8-3.3 1.5-11.1 5.8-11.7 6.4-.3.3-3.4 2.5-7 5-17.6 12-36.4 29.2-49 44.9-1.9 2.4-4.3 5.3-5.2 6.5-4 4.8-10.8 14.7-10.8 15.6 0 .6-.4 1-.9 1s-1.1.8-1.5 1.7c-.3 1-1.9 4-3.6 6.8-5 8.5-14.5 28.5-15.6 33-.4 1.7-1 3.4-1.4 4-.4.5-1.4 3.2-2.2 6-.9 2.7-2.3 7.3-3.2 10.1-.9 2.9-1.6 5.9-1.6 6.8 0 .9-.4 2.4-1 3.4-1.3 2.4-2.8 11.8-4.9 31.2-1.5 13.3-1.6 19.2-.9 30.5 1.3 21.4 4.2 43.1 5.9 44.9.5.6.9 2.2.9 3.8 0 1.5.4 3.7.9 5 .5 1.3 2 5.7 3.2 9.8 1.3 4.1 2.6 7.9 3.1 8.4.4.6.8 1.6.8 2.4 0 .8 1.3 4.3 3 7.9 1.6 3.5 3 6.8 3 7.3 0 .9 3.1 7.1 4 8 .3.3 1.5 2.5 2.8 5 1.3 2.5 3.6 6.7 5.2 9.5 1.7 2.7 3.5 6 4.2 7.2.6 1.3 1.5 2.3 2 2.3.4 0 .8.7.8 1.5s.5 1.5 1 1.5c.6 0 1.4.8 1.7 1.7.8 2.1 5 8.1 7.4 10.5 1 1 3 3.4 4.5 5.3 3.9 5.2 20.9 22.2 27.9 28 10.8 9 10.4 8.7 14.5 11.2 1.9 1.2 4.8 3.4 6.4 4.8 1.6 1.4 3.5 2.5 4.2 2.5.7 0 1.4.4 1.6.9.3.7 5.5 3.8 14.8 8.7 1.9 1.1 3.7 2.2 3.8 2.6.2.5.8.8 1.3.8.6 0 3.6 1.2 6.7 2.6 3.1 1.4 8 3.5 10.7 4.5 2.8 1.1 5.9 2.4 7 2.8 2.5 1.2 10.3 3.6 18 5.6 3.3.9 7.6 2.1 9.5 2.6 4.4 1.2 13 2.5 29 4.5 17.5 2.1 42.6 1.1 66-2.5 3.6-.6 8.1-1.5 10-2 1.9-.5 6.2-1.7 9.5-2.6 10.3-2.8 17-4.9 17.9-5.7.6-.4 1.6-.8 2.4-.8 1.4 0 2.8-.6 14.5-5.9 3.7-1.7 7.2-3.1 7.7-3.1.6 0 1-.4 1-.9s1.4-1.2 3-1.6c1.7-.4 3-1.1 3-1.6s.5-.9 1-.9c1.4 0 20.2-11.7 23.7-14.7 1.4-1.3 2.9-2.3 3.2-2.3.3 0 2-1.3 3.7-2.8 1.7-1.5 5.2-4.5 7.8-6.6 2.6-2.1 6.1-5.2 7.8-6.8 1.7-1.6 4.1-3.7 5.2-4.6 2.5-2.1 9.6-9.8 15.1-16.6 2.2-2.7 5.2-6.3 6.7-8 1.5-1.7 2.8-3.4 2.8-3.8 0-.4.6-1.3 1.3-2 2.8-3 11.4-17 16.5-26.8 3-5.8 5.8-10.9 6.3-11.5.5-.5.9-1.5.9-2.1 0-.7 1.4-4.2 3-7.7 1.7-3.6 3-7.1 3-7.9 0-.8.4-1.8.8-2.4.5-.5 1.7-3.9 2.6-7.5 1.6-6.2 1.6-6.9 0-12.5-3.7-12.8-13.2-20.4-25.8-20.4-4.5 0-11.6 1.9-11.6 3.2 0 .4-.6.8-1.4.8-3.5 0-10 9-13.4 18.5-3.4 9.7-4.6 12.5-5.3 12.5-.4 0-1 1.2-1.4 2.7-.3 1.5-1 3-1.3 3.3-.4.3-2.2 3.8-4.1 7.7-1.9 4-3.7 7.3-4 7.3-.4 0-1.2 1.3-1.9 2.8-.6 1.6-2.1 3.8-3.2 5-1.1 1.2-2 2.4-2 2.8 0 .5-2.9 4.5-8.5 11.4-6.1 7.5-25.5 25.7-30.4 28.4-.9.5-1.8 1.2-2.1 1.6-.7 1-11.8 8.4-16 10.6-1.9 1-3.7 2.2-4 2.5-.3.3-3.6 2-7.5 3.8-3.8 1.8-7.8 3.7-8.7 4.2-1 .5-4.6 1.8-8 3-3.5 1.1-7.2 2.4-8.3 2.9-1.1.5-4.2 1.4-7 2-2.7.6-6.8 1.5-9 2.1-11.3 2.6-17.8 3-43.3 2.6-21.4-.4-27.8-.8-32.2-2.2-3-.9-7.3-2.1-9.5-2.6s-4.9-1.3-6-1.8c-1.9-.7-11.1-4-18.2-6.5-1.8-.6-3.3-1.4-3.3-1.8 0-.3-1.4-.9-3-1.3s-3-1-3-1.3c0-.4-2.5-1.8-5.5-3.1-3-1.4-5.5-2.8-5.5-3.3 0-.4-.7-.8-1.5-.8s-1.5-.4-1.5-.9-1.1-1.2-2.5-1.5c-1.4-.4-2.5-1.1-2.5-1.6 0-.6-.4-1-1-1-1.1 0-11.5-7.7-17.5-13-7.7-6.8-19.8-19.6-25.5-27-5.7-7.6-14-20.2-14-21.4 0-.3-1.1-2.4-2.5-4.5-1.3-2.2-2.7-5.1-3.1-6.5-.3-1.4-1-2.6-1.5-2.6s-.9-.8-.9-1.8-.4-2.2-.8-2.8c-1.2-1.2-6.8-16.8-8.2-22.4-2.1-8.3-3-12.5-4.2-18.5-1.5-7.9-1.5-50 0-58.5 1.7-9.5 4.7-21.8 6.2-25.5.4-1.1 1.8-4.9 3.1-8.5 1.2-3.6 2.6-6.9 3.1-7.4.4-.6.8-1.8.8-2.8 0-1 .4-1.8.9-1.8s1.2-1.2 1.6-2.7c.3-1.5 1-3 1.3-3.3.4-.3 1.7-2.5 3-5 2.8-5.5 4.3-8 5.9-9.8.7-.7 1.3-1.9 1.3-2.7 0-.7.3-1.5.8-1.7.4-.2 2.5-3 4.7-6.2 3.9-5.8 27.8-30.6 34.2-35.5 7.8-6.1 24.4-16.4 32.2-20.2 4.7-2.2 9.9-4.7 11.4-5.5 1.6-.8 3.4-1.4 4.2-1.4.7 0 2.6-.7 4.1-1.5 1.6-.8 3.9-1.5 5.1-1.5 1.2 0 2.4-.4 2.7-.9.3-.5 2.7-1.2 5.3-1.6 2.7-.4 5.3-1 5.8-1.5.6-.4 2.8-1 5-1.4 2.2-.3 6.7-1.1 10-1.6 3.3-.6 15.2-1 26.5-1 20.5-.1 30.5 1 42.4 4.5 2.6.8 5.7 1.5 6.7 1.5s2 .4 2.3.9c.3.5 1.8 1.1 3.3 1.4 3.4.6 11.1 3.3 13.5 4.7 1 .6 2.5 1 3.3 1 .8 0 1.5.4 1.5.9s1.4 1.2 3 1.6c1.7.4 3 1.1 3 1.6s.6.9 1.3.9c1.4 0 12.8 5.8 13.7 7 .3.3 2.3 1.7 4.5 3s4.2 2.7 4.5 3c.3.4 2.1 1.8 4.2 3.1 4.9 3.3 15.9 13.1 22.7 20.3 15.9 16.6 20.3 20.7 23.2 21.3 1.6.3 3.2 1 3.5 1.4.7 1.2 12.1 1.1 12.9-.1.3-.6 1.5-1 2.6-1 4.1 0 11.6-6.5 14.5-12.6 2.7-5.6 2.6-19.7-.1-24-5.7-8.9-17.8-22.2-30.6-33.9-9.9-8.9-12.4-10.9-18.4-15-3.3-2.2-6.1-4.3-6.3-4.8-.2-.4-1-.7-1.8-.7s-1.4-.4-1.4-.9-1-1.3-2.2-1.7c-1.3-.4-2.5-1-2.8-1.4-.8-1.2-12.8-7.7-23.5-12.9-14.2-6.8-17.2-8.1-18.4-8.1-.6 0-1.9-.4-2.9-.9-2.9-1.5-10.3-3.9-18.2-5.7-4.1-.9-8.4-2-9.5-2.5-2.1-.8-13.2-2.6-25.5-3.9-9.1-1-41.7-1-52 .1z"/><path d="M234.2 82.5c-12.8 1.5-26 4.2-27.7 5.6-.5.5-1.9.9-3.1.9-1.3 0-2.5.4-2.9.9-.3.5-2 1.3-3.8 1.6-3.7.8-26 11.4-26.5 12.7-.2.4-.8.8-1.3.8-1.1 0-7.2 4.2-7.7 5.2-.2.5-1 .8-1.8.8s-1.4.4-1.4.9-.8 1.2-1.7 1.5c-1 .4-3.2 1.9-4.9 3.4-1.7 1.5-5.3 4.5-7.9 6.7-2.7 2.2-6 5.2-7.4 6.7-4.8 5.1-10.6 11.6-11.6 13-8.2 10.7-10.5 13.8-12.1 16.8-1 1.9-2.4 4-3.1 4.7-2.4 2.6-11.1 22.1-12.6 28.3-3.5 14.3 3.3 26.8 17.3 31.7 4.2 1.5 13.6 1.7 14.5.3.3-.6 1.7-1 3-1 2.8 0 13.5-9.7 13.5-12.3 0-.9.5-1.7 1-1.7.6 0 1-.7 1-1.6 0-1.8 6.1-13.7 7.2-14.2.5-.2.8-.9.8-1.6 0-2.8 9.9-15.7 18.4-24.1 10.5-10.3 15-14 21.5-17.5 2.5-1.4 4.8-2.7 5.1-3 1.3-1.3 7-4 8.4-4 .9 0 1.6-.4 1.6-.9s1.4-1.3 3.2-1.6c1.8-.4 3.9-1.1 4.8-1.6 4.5-2.5 26.6-5.9 38-5.9 12.5 0 29.6 3 37.7 6.6 1.7.8 3.6 1.4 4.2 1.4.5 0 4.3 1.7 8.3 3.9 10.8 5.7 13.8 7.5 13.8 8.3 0 .5.7.8 1.5.8.7 0 1.8.6 2.2 1.3.4.8 2.1 2.2 3.7 3.2 7.3 4.8 23.3 23.5 28.1 33 1.1 2.2 2.3 4.1 2.8 4.3.4.2.7.7.7 1.2s1.4 3.8 3 7.3c1.7 3.6 3 7.5 3 8.6 0 1.2.4 2.1.8 2.1 1 0 3 9.9 4.3 21.5.9 8.8.3 32-1 34-.3.5-1.1 3.2-1.8 6-2.5 10.7-3.7 14.5-4.5 14.5-.4 0-.8.8-.8 1.8s-.7 2.7-1.5 3.8c-.8 1-1.5 2.6-1.5 3.6 0 .9-.3 1.8-.7 2-.5.1-1.9 2.4-3.3 5.1-1.4 2.6-3.5 5.8-4.7 7.2-1.3 1.3-2.3 2.7-2.3 3 0 1.2-12.9 14.7-19.7 20.7-9 7.7-30.7 19.8-35.7 19.8-.8 0-1.7.4-2 .9-.3.5-2.7 1.2-5.3 1.6-2.7.4-5.4 1.2-6.2 1.8-2 1.7-42.2 1.6-47.6 0-2.2-.7-6.7-2-10-2.9-7.5-2.1-25.6-10.8-31.4-15.1-5.3-3.9-15.1-12.3-20.4-17.5-7.9-7.7-11.9-10.3-18.6-11.8-5.6-1.3-9.8-.6-16.8 2.7-4.5 2.2-11.2 9.6-11.9 13.3-.4 1.7-1.1 3.3-1.5 3.6-1.2.7-1.1 11.1.1 11.9.6.3 1 1.6 1 2.9 0 1.3 1.4 4.3 3.2 6.7 4.6 6.5 20.2 21.6 26.3 25.5 1.6 1 3.7 2.6 4.6 3.4 3.4 3.2 5.8 4.8 7.8 5.5 1.2.3 2.1 1 2.1 1.3 0 .4 3 2.3 6.8 4.2 3.7 1.9 6.9 3.8 7 4.2.2.5.8.8 1.4.8.5 0 3.9 1.4 7.5 3 3.5 1.7 7.1 3 7.8 3 .8 0 2.9.6 4.7 1.4 5.2 2.2 13.8 4.6 16.7 4.6 1.5 0 3.1.4 3.7.9 1.7 1.6 21.9 3.6 33.9 3.4 15.2-.3 39.8-3.6 46-6.2 1.1-.5 5.2-1.9 9-3.1 7.8-2.6 20.1-7.9 25.5-11.1 1.9-1.1 4.7-2.6 6.3-3.2 1.5-.6 2.7-1.4 2.7-1.8 0-.4 2.4-2.2 5.3-4 2.8-1.8 5.4-3.6 5.7-3.9.3-.3 2.8-2.3 5.5-4.4 6.4-5 20.3-19 25.1-25.3 2-2.6 3.9-5 4.3-5.3.3-.3 2.7-3.7 5.3-7.5 8.9-13.4 16.2-29.5 21.7-48 2-6.8 3.1-13.5 4.8-28 1.4-12.1 1.5-16.2.4-30.5-.7-9-1.6-16.9-2-17.5-.5-.5-1.1-3.4-1.5-6.3-.4-3-1.1-6.1-1.5-7-.4-1-2-5.5-3.5-10.2-1.5-4.7-4.1-11.3-5.7-14.8-1.6-3.5-2.9-6.5-2.9-6.7 0-.8-9.4-16-10.7-17.3-.7-.7-1.3-1.6-1.3-2 0-.4-1-1.9-2.3-3.4-1.2-1.4-2.9-3.6-3.7-4.8-5.2-7.7-19.7-22.1-30-29.8-4.1-3.1-8.1-6.2-8.8-6.9-.7-.7-2-1.3-2.8-1.3-.8 0-1.4-.4-1.4-1 0-.5-1.1-1.2-2.5-1.6-1.4-.3-2.5-1-2.5-1.4 0-.4-.8-1-1.7-1.4-1-.3-3.2-1.5-5-2.5-1.7-1.1-6.7-3.4-11-5.1-4.3-1.7-9.3-3.8-11.1-4.6-1.8-.8-4.1-1.4-5.2-1.4-1 0-2.1-.4-2.4-.9-.4-.5-2.5-1.2-4.9-1.6-2.3-.3-5.1-1-6.2-1.5-6.9-3-41.4-4.4-58.3-2.5z"/><path d="M238.6 146.2c-4.4.5-8.5 1.2-9 1.7-.6.5-2.8 1.2-5 1.5-2.1.4-4.6 1.1-5.5 1.6-.9.5-4.7 2.3-8.6 4.1-11.3 5.2-21.3 12-29.4 20-4.1 4.1-10.1 11.3-11.5 13.8-.5.9-1.6 2.2-2.3 2.9-.7.7-1.3 2-1.3 2.8 0 .8-.3 1.4-.7 1.4-.5 0-1.7 2-2.8 4.5-1.1 2.5-2.3 4.5-2.6 4.5-.4 0-1 1.4-1.4 3.1-.4 1.7-1.3 4.2-2.1 5.7s-1.4 3.5-1.4 4.5c0 .9-.4 2.5-1 3.5-1.7 3.2-4 19.7-4 29.2 0 8.8 2.7 26 4.3 27.6.4.4.7 1.7.7 2.8 0 1.2.6 3.3 1.4 4.7.7 1.4 1.6 3.8 2 5.3.4 1.6 1.8 4.5 3.2 6.5 1.3 1.9 2.4 4.1 2.4 4.8 0 .7.5 1.3 1 1.3.6 0 1 .6 1 1.4 0 .8.6 2.1 1.3 2.8.8.7 1.6 1.8 1.8 2.4 1.8 4.8 20.2 23 26 25.8 1 .5 1.9 1.3 1.9 1.8 0 .4.6.8 1.4.8.8 0 2.1.6 2.8 1.2 2 1.9 14.2 7.8 16.1 7.8.9 0 1.7.4 1.7.9 0 2 24.5 6 36.7 6.1 9.5 0 24-1.7 25.8-3 .6-.4 2.9-1.1 5.3-1.5 2.3-.4 4.2-1.1 4.2-1.6s.9-.9 2-.9c2.3 0 19.3-8.7 19.8-10.1.2-.5.9-.9 1.6-.9 1.7 0 9.6-7.8 9.6-9.5 0-.8.4-1.5.9-1.5.4 0 1.4-2 2.1-4.5 2.6-9.2-1-21.9-7.5-27.1-1.6-1.3-3.5-2.9-4.2-3.4-2.2-1.8-10.3-3.2-15.6-2.8-4.8.4-14.7 4.3-15.5 6-.2.5-.9.8-1.5.8-.7 0-3.4 1.2-6.2 2.6-2.7 1.4-7 3-9.5 3.6-5.5 1.4-16.9 1.4-23.3.1-4.2-.9-13.8-5.1-17.6-7.8-1.7-1.2-12.1-11.6-13.9-13.8-2.5-3.2-7.2-13.2-7.2-15.2 0-1.2-.5-2.6-1.1-3.2-1.3-1.3-.7-20.2.9-25.8 2.1-7.5 6.7-15 13.3-21.5 7.7-7.7 7.8-7.7 14.9-11.1 10.4-5 22.4-7.1 29.4-5 1.7.5 5.8 1.7 9.1 2.7 3.3 1 7.9 3 10.3 4.6 2.4 1.5 4.6 2.8 4.9 2.8.8 0 11.3 11.2 11.3 12.1 0 .4.6 1.4 1.3 2.1.6.7 2.7 4.3 4.6 7.9 4.4 8.7 7.7 12.3 13.8 15.4 3.9 1.9 6.6 2.5 11.6 2.5 3.6 0 6.9-.5 7.2-1 .3-.6 1.6-1 2.8-1 2.4 0 11.7-7.9 11.7-9.8 0-.7.4-1.2.9-1.2 1.1 0 3.3-8.2 3.3-12 .1-5.4-1.6-10.9-6-20-2.6-5.2-4.9-9.7-5.2-10-.3-.3-1.4-1.9-2.4-3.5-4.7-7.4-21-23.3-26.3-25.8-1.3-.6-2.3-1.3-2.3-1.7 0-.6-14.3-8-21.5-11.1-6.2-2.7-27.3-5.9-38-5.7-3.8 0-10.6.5-14.9 1z"/><path d="M245.5 212.3c-5.6 1.4-13.5 5.9-17.4 9.8-4.6 4.6-8.9 12.9-10.7 20.7-1.8 7.8-.8 15.1 3.2 24 2.5 5.6 10.8 15.2 13 15.2.7 0 1.4.3 1.6.7.6 1.6 7.5 4.2 13.6 5.4 7.9 1.5 18 0 24.9-3.6 4.9-2.6 16.3-13.7 16.3-15.8 0-.7.8-2.6 1.7-4.2 2.1-3.7 2.5-23.7.6-27.6-.6-1.3-1.9-4-2.8-6-2-4.6-12.3-14.6-15.8-15.5-1.5-.3-2.7-.9-2.7-1.3 0-1.1-11.9-3.1-17.1-3-2.4.1-6.2.6-8.4 1.2z"/></svg>